<?xml version="1.0" encoding="UTF-8"?><svg xmlns="http://www.w3.org/2000/svg" viewBox="0 0 500 500"><g id="a"/><g id="b"><g id="c"><g><path d="M107.01,1.91c-5.82-.8-11.68-1.28-17.53-1.91H53.59c-3.76,.28-7.53,.59-11.29,.85C30.65,1.67,19.04,2.88,7.51,4.79c-1.75,.29-2.37,1.06-2.63,2.72C2.61,21.97,1.04,36.49,.33,51.11c-.03,.66-.22,1.32-.33,1.97v32.36c.11,.66,.3,1.32,.32,1.98,.22,8.6,1.17,17.13,2.63,25.59,2.44,14.18,6.04,28,14.08,40.23,5.23,7.96,11.06,15.49,17.52,22.51,14.42,15.66,30.68,28.85,50.56,36.99,25.4,10.41,50.28,9.35,74.37-4.13,18.21-10.19,32.78-24.4,44.46-41.54,10.91-16.01,16.87-33.59,15.62-53.24-.88-13.86-5.05-26.74-11.51-38.92-8.52-16.05-20.19-29.59-33.61-41.68-8.02-7.22-16.43-14-25.96-19.16-12.92-7-27.04-10.16-41.45-12.14ZM4.75,492.21c.31,1.96,1.2,2.65,3.05,2.92,15.46,2.29,30.97,3.95,46.6,4.55,.57,.02,1.14,.21,1.72,.32h27.81c6.94-.64,13.91-.98,20.84-1.85,11.39-1.44,22.59-3.67,33.37-7.71,11.45-4.28,21.27-11.2,30.58-18.93,17.17-14.25,31.75-30.64,41.48-50.93,12.66-26.41,13.12-52.84-.92-78.84-10.7-19.82-26.16-35.41-45.03-47.58-13.66-8.82-28.63-13.81-44.97-14.02-13.08-.17-25.61,2.79-37.42,8.27-28.08,13.03-49.18,33.95-65.71,59.64-9.56,14.86-12.66,31.94-14.74,49.18-.57,4.75-.94,9.53-1.39,14.29v34.88c.29,3.76,.59,7.52,.85,11.28,.82,11.56,2.11,23.07,3.89,34.52Zm491.83-107.21c-2.9-16.36-8.03-31.79-18.5-45.1-4.48-5.7-8.86-11.46-13.8-16.77-13.38-14.39-28.38-26.65-46.48-34.66-24.36-10.78-48.79-11.33-72.96,.61-19.72,9.74-35.19,24.48-47.83,42.22-10.65,14.95-16.95,31.59-16.92,50.17,.02,13.95,3.55,27.14,9.68,39.66,8.88,18.15,21.84,33,36.55,46.65,20.52,19.05,44.81,28.73,72.42,30.88,4.77,.37,9.53,.88,14.3,1.33h33.37c3.76-.29,7.53-.54,11.29-.86,11.47-.97,22.93-2.13,34.32-3.86,1.97-.3,2.73-1.21,2.99-3.02,1.87-12.64,3.42-25.32,4.15-38.09,.22-3.94,.55-7.87,.83-11.8v-25.28c-.11-.66-.31-1.32-.32-1.98-.21-10.12-1.34-20.15-3.1-30.11Zm-1.4-377.49c-.27-1.74-1.03-2.38-2.71-2.65-12.46-1.94-24.96-3.41-37.56-4.05-3.68-.19-7.35-.54-11.03-.82h-30.84c-3.17,.29-6.35,.59-9.52,.86-12.28,1.04-24.34,3.18-36.17,6.71-13.02,3.89-24.09,11.12-34.47,19.6-17.74,14.49-32.9,31.15-42.97,51.96-12.7,26.26-13.36,52.61,.55,78.59,11.09,20.73,27.2,36.92,47.13,49.29,13.31,8.26,27.85,12.71,43.54,12.85,11.23,.1,22.11-2.2,32.49-6.48,29.91-12.34,51.95-33.91,69.53-60.36,10.09-15.19,13.27-32.76,15.44-50.5,.59-4.83,.95-9.7,1.41-14.55V53.59c-.28-3.42-.61-6.85-.84-10.27-.78-11.99-2.16-23.92-3.98-35.8Z" style="fill:#f7cac5;"/><circle cx="250" cy="250" r="58.47" style="fill:#f7cac5;"/></g></g></g></svg>